# xmcd
#
# Track frame offsets:
#	150
#	15679
#	27950
#	41477
#	54136
#	69520
#	83077
#	98358
#	111594
#	126845
#	143032
#	157711
#	171545
#	186425
#	201481
#	214333
#	228706
#	242695
#	255683
#	269501
#	283850
#	300150
#	315072
#	328515
#	341623
#
# Disc length: 4738 seconds
#
# Revision: 3
# Processed by: cddbd v1.5.2PL0 Copyright (c) Steve Scherf et al.
# Submitted via: EasyCDDAExtractor 11.1.0.1
#
DISCID=62128019
DTITLE=Big Bill Broonzy - All The Classic Sides (1928-1937) - Disc 3
DYEAR=2003
DGENRE=Blues
TTITLE0=Starvation Blues (1934)
TTITLE1=Mississippi River Blues (1934)
TTITLE2=At The Break Of Day (1935)
TTITLE3=I Want To Go Home (1935)
TTITLE4=Hard Headed Woman (1935)
TTITLE5=Dying Day Blues (1935)
TTITLE6=I Want To See My Baby (1935)
TTITLE7=Serve It To Me Right (1935)
TTITLE8=Dirty No-Gooder (1935)
TTITLE9=Let Her Go - She Don't Know (1935)
TTITLE10=Hobo Blues (1935)
TTITLE11=Prowlin' Ground Hog (1935)
TTITLE12=CC Rider (take A) (1935)
TTITLE13=CC Rider (take B) (1935)
TTITLE14=Sweet To Mama (1935)
TTITLE15=Rustlin' Man (1935)
TTITLE16=She Caught The Train (1935)
TTITLE17=Midnight Special (1935)
TTITLE18=The Dozen (1935)
TTITLE19=Don't Tear My Clothes (1935)
TTITLE20=The Southern Blues (1935)
TTITLE21=Good Jelly (1935)
TTITLE22=C And A Blues (1935)
TTITLE23=Something Good (1935)
TTITLE24=You May Need My Help Someday (1935)
EXTD=
EXTT0=
EXTT1=
EXTT2=
EXTT3=
EXTT4=
EXTT5=
EXTT6=
EXTT7=
EXTT8=
EXTT9=
EXTT10=
EXTT11=
EXTT12=
EXTT13=
EXTT14=
EXTT15=
EXTT16=
EXTT17=
EXTT18=
EXTT19=
EXTT20=
EXTT21=
EXTT22=
EXTT23=
EXTT24=
PLAYORDER=
